<svg xmlns="http://www.w3.org/2000/svg" fill="none" viewBox="0 0 193 78" height="78" width="193">
<path fill="#373737" d="M16.3228 56V60.62H10.9228V77H6.12284V60.62H0.722839V56H16.3228Z"></path>
<path fill="#373737" d="M27.064 61.58C28.664 61.58 29.994 62.13 31.054 63.23C32.134 64.33 32.674 65.85 32.674 67.79V77H28.174V68.45C28.174 67.57 27.924 66.9 27.424 66.44C26.944 65.96 26.324 65.72 25.564 65.72C24.704 65.72 24.024 65.98 23.524 66.5C23.024 67.02 22.774 67.79 22.774 68.81V77H18.274V56H22.774V63.41C23.674 62.19 25.104 61.58 27.064 61.58Z"></path>
<path fill="#373737" d="M46.6542 62H51.1542V77H46.6542V75.59C45.5942 76.81 44.1042 77.42 42.1842 77.42C40.2042 77.42 38.5142 76.66 37.1142 75.14C35.7142 73.6 35.0142 71.72 35.0142 69.5C35.0142 67.28 35.7142 65.41 37.1142 63.89C38.5142 62.35 40.2042 61.58 42.1842 61.58C44.1042 61.58 45.5942 62.19 46.6542 63.41V62ZM40.5042 72.17C41.1642 72.83 42.0242 73.16 43.0842 73.16C44.1442 73.16 45.0042 72.83 45.6642 72.17C46.3242 71.51 46.6542 70.62 46.6542 69.5C46.6542 68.38 46.3242 67.49 45.6642 66.83C45.0042 66.17 44.1442 65.84 43.0842 65.84C42.0242 65.84 41.1642 66.17 40.5042 66.83C39.8442 67.49 39.5142 68.38 39.5142 69.5C39.5142 70.62 39.8442 71.51 40.5042 72.17Z"></path>
<path fill="#373737" d="M63.2457 66.32H60.1557V71.63C60.1557 72.23 60.3957 72.61 60.8757 72.77C61.3557 72.93 62.1457 72.98 63.2457 72.92V77C60.3857 77.3 58.4057 77.03 57.3057 76.19C56.2057 75.33 55.6557 73.81 55.6557 71.63V66.32H53.2557V62H55.6557V59.15L60.1557 57.8V62H63.2457V66.32Z"></path>
<path fill="#373737" d="M69.9071 66.38C69.9071 66.68 70.1571 66.93 70.6571 67.13C71.1771 67.31 71.7971 67.5 72.5171 67.7C73.2371 67.88 73.9571 68.12 74.6771 68.42C75.3971 68.72 76.0071 69.22 76.5071 69.92C77.0271 70.6 77.2871 71.46 77.2871 72.5C77.2871 74.12 76.6871 75.35 75.4871 76.19C74.2871 77.01 72.8071 77.42 71.0471 77.42C67.8871 77.42 65.7371 76.23 64.5971 73.85L68.4971 71.63C68.8971 72.81 69.7471 73.4 71.0471 73.4C72.1271 73.4 72.6671 73.09 72.6671 72.47C72.6671 72.17 72.4071 71.92 71.8871 71.72C71.3871 71.52 70.7771 71.33 70.0571 71.15C69.3371 70.95 68.6171 70.7 67.8971 70.4C67.1771 70.08 66.5571 69.59 66.0371 68.93C65.5371 68.27 65.2871 67.46 65.2871 66.5C65.2871 64.94 65.8471 63.73 66.9671 62.87C68.1071 62.01 69.5071 61.58 71.1671 61.58C72.4071 61.58 73.5371 61.86 74.5571 62.42C75.5771 62.96 76.3971 63.75 77.0171 64.79L73.1771 66.86C72.6971 65.98 72.0271 65.54 71.1671 65.54C70.3271 65.54 69.9071 65.82 69.9071 66.38Z"></path>
<path fill="#373737" d="M94.3803 77.42C92.1003 77.42 90.2003 76.66 88.6803 75.14C87.1803 73.62 86.4303 71.74 86.4303 69.5C86.4303 67.26 87.1803 65.38 88.6803 63.86C90.2003 62.34 92.1003 61.58 94.3803 61.58C95.8203 61.58 97.1403 61.93 98.3403 62.63C99.5603 63.33 100.5 64.26 101.16 65.42L97.2303 67.7C96.6903 66.58 95.7203 66.02 94.3203 66.02C93.3403 66.02 92.5303 66.35 91.8903 67.01C91.2503 67.65 90.9303 68.48 90.9303 69.5C90.9303 70.52 91.2503 71.36 91.8903 72.02C92.5303 72.66 93.3403 72.98 94.3203 72.98C95.7403 72.98 96.7103 72.42 97.2303 71.3L101.16 73.55C100.5 74.73 99.5703 75.67 98.3703 76.37C97.1703 77.07 95.8403 77.42 94.3803 77.42Z"></path>
<path fill="#373737" d="M115.518 75.14C113.978 76.66 112.098 77.42 109.878 77.42C107.658 77.42 105.778 76.66 104.238 75.14C102.698 73.6 101.928 71.72 101.928 69.5C101.928 67.28 102.698 65.41 104.238 63.89C105.778 62.35 107.658 61.58 109.878 61.58C112.098 61.58 113.978 62.35 115.518 63.89C117.058 65.41 117.828 67.28 117.828 69.5C117.828 71.72 117.058 73.6 115.518 75.14ZM107.418 72.05C108.078 72.71 108.898 73.04 109.878 73.04C110.858 73.04 111.678 72.71 112.338 72.05C112.998 71.39 113.328 70.54 113.328 69.5C113.328 68.46 112.998 67.61 112.338 66.95C111.678 66.29 110.858 65.96 109.878 65.96C108.898 65.96 108.078 66.29 107.418 66.95C106.758 67.61 106.428 68.46 106.428 69.5C106.428 70.54 106.758 71.39 107.418 72.05Z"></path>
<path fill="#373737" d="M124.874 64.67C125.154 63.71 125.714 62.98 126.554 62.48C127.414 61.96 128.354 61.7 129.374 61.7V66.8C128.274 66.62 127.244 66.81 126.284 67.37C125.344 67.91 124.874 68.86 124.874 70.22V77H120.374V62H124.874V64.67Z"></path>
<path fill="#373737" d="M135.977 64.67C136.257 63.71 136.817 62.98 137.657 62.48C138.517 61.96 139.457 61.7 140.477 61.7V66.8C139.377 66.62 138.347 66.81 137.387 67.37C136.447 67.91 135.977 68.86 135.977 70.22V77H131.477V62H135.977V64.67Z"></path>
<path fill="#373737" d="M146.161 71.3C146.681 72.7 147.881 73.4 149.761 73.4C150.981 73.4 151.941 73.02 152.641 72.26L156.241 74.33C154.761 76.39 152.581 77.42 149.701 77.42C147.181 77.42 145.161 76.67 143.641 75.17C142.141 73.67 141.391 71.78 141.391 69.5C141.391 67.24 142.131 65.36 143.611 63.86C145.111 62.34 147.031 61.58 149.371 61.58C151.551 61.58 153.361 62.34 154.801 63.86C156.261 65.36 156.991 67.24 156.991 69.5C156.991 70.14 156.931 70.74 156.811 71.3H146.161ZM146.071 67.94H152.521C152.081 66.36 151.021 65.57 149.341 65.57C147.601 65.57 146.511 66.36 146.071 67.94Z"></path>
<path fill="#373737" d="M166.597 77.42C164.317 77.42 162.417 76.66 160.897 75.14C159.397 73.62 158.647 71.74 158.647 69.5C158.647 67.26 159.397 65.38 160.897 63.86C162.417 62.34 164.317 61.58 166.597 61.58C168.037 61.58 169.357 61.93 170.557 62.63C171.777 63.33 172.717 64.26 173.377 65.42L169.447 67.7C168.907 66.58 167.937 66.02 166.537 66.02C165.557 66.02 164.747 66.35 164.107 67.01C163.467 67.65 163.147 68.48 163.147 69.5C163.147 70.52 163.467 71.36 164.107 72.02C164.747 72.66 165.557 72.98 166.537 72.98C167.957 72.98 168.927 72.42 169.447 71.3L173.377 73.55C172.717 74.73 171.787 75.67 170.587 76.37C169.387 77.07 168.057 77.42 166.597 77.42Z"></path>
<path fill="#373737" d="M183.978 66.32H180.888V71.63C180.888 72.23 181.128 72.61 181.608 72.77C182.088 72.93 182.878 72.98 183.978 72.92V77C181.118 77.3 179.138 77.03 178.038 76.19C176.938 75.33 176.388 73.81 176.388 71.63V66.32H173.988V62H176.388V59.15L180.888 57.8V62H183.978V66.32Z"></path>
<path fill="#373737" d="M187.569 69.5L186.669 62V56H192.069V62L191.169 69.5H187.569ZM191.379 76.58C190.819 77.14 190.149 77.42 189.369 77.42C188.589 77.42 187.919 77.14 187.359 76.58C186.799 76.02 186.519 75.35 186.519 74.57C186.519 73.79 186.799 73.12 187.359 72.56C187.919 72 188.589 71.72 189.369 71.72C190.149 71.72 190.819 72 191.379 72.56C191.939 73.12 192.219 73.79 192.219 74.57C192.219 75.35 191.939 76.02 191.379 76.58Z"></path>
<path fill="#373737" d="M105.729 4.16663H88.2708C80.6875 4.16663 76.1667 8.68746 76.1667 16.2708V33.7083C76.1667 41.3125 80.6875 45.8333 88.2708 45.8333H105.708C113.292 45.8333 117.813 41.3125 117.813 33.7291V16.2708C117.833 8.68746 113.313 4.16663 105.729 4.16663ZM89.7083 13.2916C91.8542 13.2916 93.625 15.0416 93.625 17.2083C93.625 19.375 91.875 21.125 89.7083 21.125C87.5417 21.125 85.7917 19.3333 85.7917 17.1875C85.7917 15.0416 87.5625 13.2916 89.7083 13.2916ZM97 39.75C91.3958 39.75 86.8333 35.1875 86.8333 29.5833C86.8333 28.125 88.0208 26.9166 89.4792 26.9166H104.479C105.938 26.9166 107.125 28.1041 107.125 29.5833C107.167 35.1875 102.604 39.75 97 39.75ZM104.292 21.0833C102.146 21.0833 100.375 19.3333 100.375 17.1666C100.375 15 102.125 13.25 104.292 13.25C106.458 13.25 108.208 15 108.208 17.1666C108.208 19.3333 106.438 21.0833 104.292 21.0833Z"></path>
</svg>
