<svg version="1.1" xmlns="http://www.w3.org/2000/svg" xmlns:xlink="http://www.w3.org/1999/xlink" width="242.42298" height="98.04337" viewBox="0,0,242.42298,98.04337"><g transform="translate(-119.02401,-132.66663)"><g data-paper-data="{&quot;isPaintingLayer&quot;:true}" fill-rule="nonzero" stroke="none" stroke-width="1" stroke-linecap="butt" stroke-linejoin="miter" stroke-miterlimit="10" stroke-dasharray="" stroke-dashoffset="0" style="mix-blend-mode: normal"><path d="M138.7731,184.5v4.62h-5.4v16.38h-4.8v-16.38h-5.40005v-4.62z" fill="#373737"/><path d="M149.5142,190.08c1.6,0 2.93,0.55 3.99,1.65c1.08,1.1 1.62,2.62 1.62,4.56v9.21h-4.5v-8.55c0,-0.88 -0.25,-1.55 -0.75,-2.01c-0.48,-0.48 -1.1,-0.72 -1.86,-0.72c-0.86,0 -1.54,0.26 -2.04,0.78c-0.5,0.52 -0.75,1.29 -0.75,2.31v8.19h-4.5v-21h4.5v7.41c0.9,-1.22 2.33,-1.83 4.29,-1.83z" fill="#373737"/><path d="M169.1045,190.5h4.5v15h-4.5v-1.41c-1.06,1.22 -2.55,1.83 -4.47,1.83c-1.98,0 -3.67,-0.76 -5.07,-2.28c-1.4,-1.54 -2.1,-3.42 -2.1,-5.64c0,-2.22 0.7,-4.09 2.1,-5.61c1.4,-1.54 3.09,-2.31 5.07,-2.31c1.92,0 3.41,0.61 4.47,1.83zM162.9545,200.67c0.66,0.66 1.52,0.99 2.58,0.99c1.06,0 1.92,-0.33 2.58,-0.99c0.66,-0.66 0.99,-1.55 0.99,-2.67c0,-1.12 -0.33,-2.01 -0.99,-2.67c-0.66,-0.66 -1.52,-0.99 -2.58,-0.99c-1.06,0 -1.92,0.33 -2.58,0.99c-0.66,0.66 -0.99,1.55 -0.99,2.67c0,1.12 0.33,2.01 0.99,2.67z" fill="#373737"/><path d="M185.6959,194.82h-3.09v5.31c0,0.6 0.24,0.98 0.72,1.14c0.48,0.16 1.27,0.21 2.37,0.15v4.08c-2.86,0.3 -4.84,0.03 -5.94,-0.81c-1.1,-0.86 -1.65,-2.38 -1.65,-4.56v-5.31h-2.4v-4.32h2.4v-2.85l4.5,-1.35v4.2h3.09z" fill="#373737"/><path d="M192.3573,194.88c0,0.3 0.25,0.55 0.75,0.75c0.52,0.18 1.14,0.37 1.86,0.57c0.72,0.18 1.44,0.42 2.16,0.72c0.72,0.3 1.33,0.8 1.83,1.5c0.52,0.68 0.78,1.54 0.78,2.58c0,1.62 -0.6,2.85 -1.8,3.69c-1.2,0.82 -2.68,1.23 -4.44,1.23c-3.16,0 -5.31,-1.19 -6.45,-3.57l3.9,-2.22c0.4,1.18 1.25,1.77 2.55,1.77c1.08,0 1.62,-0.31 1.62,-0.93c0,-0.3 -0.26,-0.55 -0.78,-0.75c-0.5,-0.2 -1.11,-0.39 -1.83,-0.57c-0.72,-0.2 -1.44,-0.45 -2.16,-0.75c-0.72,-0.32 -1.34,-0.81 -1.86,-1.47c-0.5,-0.66 -0.75,-1.47 -0.75,-2.43c0,-1.56 0.56,-2.77 1.68,-3.63c1.14,-0.86 2.54,-1.29 4.2,-1.29c1.24,0 2.37,0.28 3.39,0.84c1.02,0.54 1.84,1.33 2.46,2.37l-3.84,2.07c-0.48,-0.88 -1.15,-1.32 -2.01,-1.32c-0.84,0 -1.26,0.28 -1.26,0.84z" fill="#373737"/><path d="M213.7705,188.4c-0.52,0.52 -1.15,0.78 -1.89,0.78c-0.74,0 -1.38,-0.26 -1.92,-0.78c-0.52,-0.54 -0.78,-1.18 -0.78,-1.92c0,-0.74 0.26,-1.37 0.78,-1.89c0.54,-0.54 1.18,-0.81 1.92,-0.81c0.74,0 1.37,0.27 1.89,0.81c0.54,0.52 0.81,1.15 0.81,1.89c0,0.74 -0.27,1.38 -0.81,1.92zM209.6305,205.5v-15h4.5v15z" fill="#373737"/><path d="M226.213,190.08c1.6,0 2.93,0.55 3.99,1.65c1.08,1.1 1.62,2.62 1.62,4.56v9.21h-4.5v-8.55c0,-0.88 -0.25,-1.55 -0.75,-2.01c-0.48,-0.48 -1.1,-0.72 -1.86,-0.72c-0.86,0 -1.54,0.26 -2.04,0.78c-0.5,0.52 -0.75,1.29 -0.75,2.31v8.19h-4.4996v-15h4.4996v1.41c0.9,-1.22 2.33,-1.83 4.29,-1.83z" fill="#373737"/><path d="M242.114,205.92c-2.28,0 -4.18,-0.76 -5.7,-2.28c-1.5,-1.52 -2.25,-3.4 -2.25,-5.64c0,-2.24 0.75,-4.12 2.25,-5.64c1.52,-1.52 3.42,-2.28 5.7,-2.28c1.44,0 2.76,0.35 3.96,1.05c1.22,0.7 2.16,1.63 2.82,2.79l-3.93,2.28c-0.54,-1.12 -1.51,-1.68 -2.91,-1.68c-0.98,0 -1.79,0.33 -2.43,0.99c-0.64,0.64 -0.96,1.47 -0.96,2.49c0,1.02 0.32,1.86 0.96,2.52c0.64,0.64 1.45,0.96 2.43,0.96c1.42,0 2.39,-0.56 2.91,-1.68l3.93,2.25c-0.66,1.18 -1.59,2.12 -2.79,2.82c-1.2,0.7 -2.53,1.05 -3.99,1.05z" fill="#373737"/><path d="M263.252,203.64c-1.54,1.52 -3.42,2.28 -5.64,2.28c-2.22,0 -4.1,-0.76 -5.64,-2.28c-1.54,-1.54 -2.31,-3.42 -2.31,-5.64c0,-2.22 0.77,-4.09 2.31,-5.61c1.54,-1.54 3.42,-2.31 5.64,-2.31c2.22,0 4.1,0.77 5.64,2.31c1.54,1.52 2.31,3.39 2.31,5.61c0,2.22 -0.77,4.1 -2.31,5.64zM255.152,200.55c0.66,0.66 1.48,0.99 2.46,0.99c0.98,0 1.8,-0.33 2.46,-0.99c0.66,-0.66 0.99,-1.51 0.99,-2.55c0,-1.04 -0.33,-1.89 -0.99,-2.55c-0.66,-0.66 -1.48,-0.99 -2.46,-0.99c-0.98,0 -1.8,0.33 -2.46,0.99c-0.66,0.66 -0.99,1.51 -0.99,2.55c0,1.04 0.33,1.89 0.99,2.55z" fill="#373737"/><path d="M272.607,193.17c0.28,-0.96 0.84,-1.69 1.68,-2.19c0.86,-0.52 1.8,-0.78 2.82,-0.78v5.1c-1.1,-0.18 -2.13,0.01 -3.09,0.57c-0.94,0.54 -1.41,1.49 -1.41,2.85v6.78h-4.5v-15h4.5z" fill="#373737"/><path d="M283.711,193.17c0.28,-0.96 0.84,-1.69 1.68,-2.19c0.86,-0.52 1.8,-0.78 2.82,-0.78v5.1c-1.1,-0.18 -2.13,0.01 -3.09,0.57c-0.94,0.54 -1.41,1.49 -1.41,2.85v6.78h-4.5v-15h4.5z" fill="#373737"/><path d="M293.895,199.8c0.52,1.4 1.72,2.1 3.6,2.1c1.22,0 2.18,-0.38 2.88,-1.14l3.6,2.07c-1.48,2.06 -3.66,3.09 -6.54,3.09c-2.52,0 -4.54,-0.75 -6.06,-2.25c-1.5,-1.5 -2.25,-3.39 -2.25,-5.67c0,-2.26 0.74,-4.14 2.22,-5.64c1.5,-1.52 3.42,-2.28 5.76,-2.28c2.18,0 3.99,0.76 5.43,2.28c1.46,1.5 2.19,3.38 2.19,5.64c0,0.64 -0.06,1.24 -0.18,1.8zM293.805,196.44h6.45c-0.44,-1.58 -1.5,-2.37 -3.18,-2.37c-1.74,0 -2.83,0.79 -3.27,2.37z" fill="#373737"/><path d="M314.33,205.92c-2.28,0 -4.18,-0.76 -5.7,-2.28c-1.5,-1.52 -2.25,-3.4 -2.25,-5.64c0,-2.24 0.75,-4.12 2.25,-5.64c1.52,-1.52 3.42,-2.28 5.7,-2.28c1.44,0 2.76,0.35 3.96,1.05c1.22,0.7 2.16,1.63 2.82,2.79l-3.93,2.28c-0.54,-1.12 -1.51,-1.68 -2.91,-1.68c-0.98,0 -1.79,0.33 -2.43,0.99c-0.64,0.64 -0.96,1.47 -0.96,2.49c0,1.02 0.32,1.86 0.96,2.52c0.64,0.64 1.45,0.96 2.43,0.96c1.42,0 2.39,-0.56 2.91,-1.68l3.93,2.25c-0.66,1.18 -1.59,2.12 -2.79,2.82c-1.2,0.7 -2.53,1.05 -3.99,1.05z" fill="#373737"/><path d="M331.711,194.82h-3.09v5.31c0,0.6 0.24,0.98 0.72,1.14c0.48,0.16 1.27,0.21 2.37,0.15v4.08c-2.86,0.3 -4.84,0.03 -5.94,-0.81c-1.1,-0.86 -1.65,-2.38 -1.65,-4.56v-5.31h-2.4v-4.32h2.4v-2.85l4.5,-1.35v4.2h3.09z" fill="#373737"/><path d="M339.112,205.08c-0.56,0.56 -1.23,0.84 -2.01,0.84c-0.78,0 -1.45,-0.28 -2.01,-0.84c-0.56,-0.56 -0.84,-1.23 -0.84,-2.01c0,-0.78 0.28,-1.45 0.84,-2.01c0.56,-0.56 1.23,-0.84 2.01,-0.84c0.78,0 1.45,0.28 2.01,0.84c0.56,0.56 0.84,1.23 0.84,2.01c0,0.78 -0.28,1.45 -0.84,2.01z" fill="#373737"/><path d="M347.521,205.08c-0.56,0.56 -1.23,0.84 -2.01,0.84c-0.78,0 -1.45,-0.28 -2.01,-0.84c-0.56,-0.56 -0.84,-1.23 -0.84,-2.01c0,-0.78 0.28,-1.45 0.84,-2.01c0.56,-0.56 1.23,-0.84 2.01,-0.84c0.78,0 1.45,0.28 2.01,0.84c0.56,0.56 0.84,1.23 0.84,2.01c0,0.78 -0.28,1.45 -0.84,2.01z" fill="#373737"/><path d="M355.929,205.08c-0.56,0.56 -1.23,0.84 -2.01,0.84c-0.78,0 -1.45,-0.28 -2.01,-0.84c-0.56,-0.56 -0.84,-1.23 -0.84,-2.01c0,-0.78 0.28,-1.45 0.84,-2.01c0.56,-0.56 1.23,-0.84 2.01,-0.84c0.78,0 1.45,0.28 2.01,0.84c0.56,0.56 0.84,1.23 0.84,2.01c0,0.78 -0.28,1.45 -0.84,2.01z" fill="#373737"/><path d="M126.82402,220v2.31h-2.7v8.19h-2.4v-8.19h-2.7v-2.31z" fill="#373737"/><path d="M132.1946,222.79c0.8,0 1.465,0.275 1.995,0.825c0.54,0.55 0.81,1.31 0.81,2.28v4.605h-2.25v-4.275c0,-0.44 -0.125,-0.775 -0.375,-1.005c-0.24,-0.24 -0.55,-0.36 -0.93,-0.36c-0.43,0 -0.77,0.13 -1.02,0.39c-0.25,0.26 -0.375,0.645 -0.375,1.155v4.095h-2.25v-10.5h2.25v3.705c0.45,-0.61 1.165,-0.915 2.145,-0.915z" fill="#373737"/><path d="M138.5547,227.65c0.26,0.7 0.86,1.05 1.8,1.05c0.61,0 1.09,-0.19 1.44,-0.57l1.8,1.035c-0.74,1.03 -1.83,1.545 -3.27,1.545c-1.26,0 -2.27,-0.375 -3.03,-1.125c-0.75,-0.75 -1.125,-1.695 -1.125,-2.835c0,-1.13 0.37,-2.07 1.11,-2.82c0.75,-0.76 1.71,-1.14 2.88,-1.14c1.09,0 1.995,0.38 2.715,1.14c0.73,0.75 1.095,1.69 1.095,2.82c0,0.32 -0.03,0.62 -0.09,0.9zM138.5097,225.97h3.225c-0.22,-0.79 -0.75,-1.185 -1.59,-1.185c-0.87,0 -1.415,0.395 -1.635,1.185z" fill="#373737"/><path d="M152.5959,230.71c-1.14,0 -2.09,-0.38 -2.85,-1.14c-0.75,-0.76 -1.125,-1.7 -1.125,-2.82c0,-1.12 0.375,-2.06 1.125,-2.82c0.76,-0.76 1.71,-1.14 2.85,-1.14c0.72,0 1.38,0.175 1.98,0.525c0.61,0.35 1.08,0.815 1.41,1.395l-1.965,1.14c-0.27,-0.56 -0.755,-0.84 -1.455,-0.84c-0.49,0 -0.895,0.165 -1.215,0.495c-0.32,0.32 -0.48,0.735 -0.48,1.245c0,0.51 0.16,0.93 0.48,1.26c0.32,0.32 0.725,0.48 1.215,0.48c0.71,0 1.195,-0.28 1.455,-0.84l1.965,1.125c-0.33,0.59 -0.795,1.06 -1.395,1.41c-0.6,0.35 -1.265,0.525 -1.995,0.525z" fill="#373737"/><path d="M163.1649,229.57c-0.77,0.76 -1.71,1.14 -2.82,1.14c-1.11,0 -2.05,-0.38 -2.82,-1.14c-0.77,-0.77 -1.155,-1.71 -1.155,-2.82c0,-1.11 0.385,-2.045 1.155,-2.805c0.77,-0.77 1.71,-1.155 2.82,-1.155c1.11,0 2.05,0.385 2.82,1.155c0.77,0.76 1.155,1.695 1.155,2.805c0,1.11 -0.385,2.05 -1.155,2.82zM159.11489,228.025c0.33,0.33 0.74,0.495 1.23,0.495c0.49,0 0.9,-0.165 1.23,-0.495c0.33,-0.33 0.495,-0.755 0.495,-1.275c0,-0.52 -0.165,-0.945 -0.495,-1.275c-0.33,-0.33 -0.74,-0.495 -1.23,-0.495c-0.49,0 -0.9,0.165 -1.23,0.495c-0.33,0.33 -0.495,0.755 -0.495,1.275c0,0.52 0.165,0.945 0.495,1.275z" fill="#373737"/><path d="M167.8426,224.335c0.14,-0.48 0.42,-0.845 0.84,-1.095c0.43,-0.26 0.9,-0.39 1.41,-0.39v2.55c-0.55,-0.09 -1.065,0.005 -1.545,0.285c-0.47,0.27 -0.705,0.745 -0.705,1.425v3.39h-2.25v-7.5h2.25z" fill="#373737"/><path d="M173.3943,224.335c0.14,-0.48 0.42,-0.845 0.84,-1.095c0.43,-0.26 0.9,-0.39 1.41,-0.39v2.55c-0.55,-0.09 -1.065,0.005 -1.545,0.285c-0.47,0.27 -0.705,0.745 -0.705,1.425v3.39h-2.25v-7.5h2.25z" fill="#373737"/><path d="M178.4864,227.65c0.26,0.7 0.86,1.05 1.8,1.05c0.61,0 1.09,-0.19 1.44,-0.57l1.8,1.035c-0.74,1.03 -1.83,1.545 -3.27,1.545c-1.26,0 -2.27,-0.375 -3.03,-1.125c-0.75,-0.75 -1.125,-1.695 -1.125,-2.835c0,-1.13 0.37,-2.07 1.11,-2.82c0.75,-0.76 1.71,-1.14 2.88,-1.14c1.09,0 1.995,0.38 2.715,1.14c0.73,0.75 1.095,1.69 1.095,2.82c0,0.32 -0.03,0.62 -0.09,0.9zM178.4414,225.97h3.225c-0.22,-0.79 -0.75,-1.185 -1.59,-1.185c-0.87,0 -1.415,0.395 -1.635,1.185z" fill="#373737"/><path d="M188.7043,230.71c-1.14,0 -2.09,-0.38 -2.85,-1.14c-0.75,-0.76 -1.125,-1.7 -1.125,-2.82c0,-1.12 0.375,-2.06 1.125,-2.82c0.76,-0.76 1.71,-1.14 2.85,-1.14c0.72,0 1.38,0.175 1.98,0.525c0.61,0.35 1.08,0.815 1.41,1.395l-1.965,1.14c-0.27,-0.56 -0.755,-0.84 -1.455,-0.84c-0.49,0 -0.895,0.165 -1.215,0.495c-0.32,0.32 -0.48,0.735 -0.48,1.245c0,0.51 0.16,0.93 0.48,1.26c0.32,0.32 0.725,0.48 1.215,0.48c0.71,0 1.195,-0.28 1.455,-0.84l1.965,1.125c-0.33,0.59 -0.795,1.06 -1.395,1.41c-0.6,0.35 -1.265,0.525 -1.995,0.525z" fill="#373737"/><path d="M197.3948,225.16h-1.545v2.655c0,0.3 0.12,0.49 0.36,0.57c0.24,0.08 0.635,0.105 1.185,0.075v2.04c-1.43,0.15 -2.42,0.015 -2.97,-0.405c-0.55,-0.43 -0.825,-1.19 -0.825,-2.28v-2.655h-1.2v-2.16h1.2v-1.425l2.25,-0.675v2.1h1.545z" fill="#373737"/><path d="M208.0102,223h2.25v7.5h-2.25v-0.705c-0.53,0.61 -1.275,0.915 -2.235,0.915c-0.99,0 -1.835,-0.38 -2.535,-1.14c-0.7,-0.77 -1.05,-1.71 -1.05,-2.82c0,-1.11 0.35,-2.045 1.05,-2.805c0.7,-0.77 1.545,-1.155 2.535,-1.155c0.96,0 1.705,0.305 2.235,0.915zM204.9352,228.085c0.33,0.33 0.76,0.495 1.29,0.495c0.53,0 0.96,-0.165 1.29,-0.495c0.33,-0.33 0.495,-0.775 0.495,-1.335c0,-0.56 -0.165,-1.005 -0.495,-1.335c-0.33,-0.33 -0.76,-0.495 -1.29,-0.495c-0.53,0 -0.96,0.165 -1.29,0.495c-0.33,0.33 -0.495,0.775 -0.495,1.335c0,0.56 0.165,1.005 0.495,1.335z" fill="#373737"/><path d="M216.3059,222.79c0.8,0 1.465,0.275 1.995,0.825c0.5401,0.55 0.8101,1.31 0.8101,2.28v4.605h-2.2501v-4.275c0,-0.44 -0.125,-0.775 -0.375,-1.005c-0.24,-0.24 -0.55,-0.36 -0.93,-0.36c-0.43,0 -0.77,0.13 -1.02,0.39c-0.25,0.26 -0.375,0.645 -0.375,1.155v4.095h-2.25v-7.5h2.25v0.705c0.45,-0.61 1.165,-0.915 2.145,-0.915z" fill="#373737"/><path d="M222.786,225.19c0,0.15 0.125,0.275 0.375,0.375c0.26,0.09 0.57,0.185 0.93,0.285c0.36,0.09 0.72,0.21 1.08,0.36c0.36,0.15 0.665,0.4 0.915,0.75c0.26,0.34 0.39,0.77 0.39,1.29c0,0.81 -0.3,1.425 -0.9,1.845c-0.6,0.41 -1.34,0.615 -2.22,0.615c-1.58,0 -2.655,-0.595 -3.225,-1.785l1.95,-1.11c0.2,0.59 0.625,0.885 1.275,0.885c0.54,0 0.81,-0.155 0.81,-0.465c0,-0.15 -0.13,-0.275 -0.39,-0.375c-0.25,-0.1 -0.555,-0.195 -0.915,-0.285c-0.36,-0.1 -0.72,-0.225 -1.08,-0.375c-0.36,-0.16 -0.67,-0.405 -0.93,-0.735c-0.25,-0.33 -0.375,-0.735 -0.375,-1.215c0,-0.78 0.28,-1.385 0.84,-1.815c0.57,-0.43 1.27,-0.645 2.1,-0.645c0.62,0 1.185,0.14 1.695,0.42c0.51,0.27 0.92,0.665 1.23,1.185l-1.92,1.035c-0.24,-0.44 -0.575,-0.66 -1.005,-0.66c-0.42,0 -0.63,0.14 -0.63,0.42z" fill="#373737"/><path d="M235.63,223h2.4l-2.4,7.5h-2.1l-1.2,-4.005l-1.2,4.005h-2.1l-2.4,-7.5h2.4l1.08,4.02l1.17,-4.02h2.1l1.17,4.02z" fill="#373737"/><path d="M240.64,227.65c0.26,0.7 0.86,1.05 1.8,1.05c0.61,0 1.09,-0.19 1.44,-0.57l1.8,1.035c-0.74,1.03 -1.83,1.545 -3.27,1.545c-1.26,0 -2.27,-0.375 -3.03,-1.125c-0.75,-0.75 -1.125,-1.695 -1.125,-2.835c0,-1.13 0.37,-2.07 1.11,-2.82c0.75,-0.76 1.71,-1.14 2.88,-1.14c1.09,0 1.995,0.38 2.715,1.14c0.73,0.75 1.095,1.69 1.095,2.82c0,0.32 -0.03,0.62 -0.09,0.9zM240.595,225.97h3.225c-0.22,-0.79 -0.75,-1.185 -1.59,-1.185c-0.87,0 -1.415,0.395 -1.635,1.185z" fill="#373737"/><path d="M249.581,224.335c0.14,-0.48 0.42,-0.845 0.84,-1.095c0.43,-0.26 0.9,-0.39 1.41,-0.39v2.55c-0.55,-0.09 -1.065,0.005 -1.545,0.285c-0.47,0.27 -0.705,0.745 -0.705,1.425v3.39h-2.25v-7.5h2.25z" fill="#373737"/><path d="M264.883,223h2.4l-2.4,7.5h-2.1l-1.2,-4.005l-1.2,4.005h-2.1l-2.4,-7.5h2.4l1.08,4.02l1.17,-4.02h2.1l1.17,4.02z" fill="#373737"/><path d="M274.303,229.57c-0.77,0.76 -1.71,1.14 -2.82,1.14c-1.11,0 -2.05,-0.38 -2.82,-1.14c-0.77,-0.77 -1.155,-1.71 -1.155,-2.82c0,-1.11 0.385,-2.045 1.155,-2.805c0.77,-0.77 1.71,-1.155 2.82,-1.155c1.11,0 2.05,0.385 2.82,1.155c0.77,0.76 1.155,1.695 1.155,2.805c0,1.11 -0.385,2.05 -1.155,2.82zM270.253,228.025c0.33,0.33 0.74,0.495 1.23,0.495c0.49,0 0.9,-0.165 1.23,-0.495c0.33,-0.33 0.495,-0.755 0.495,-1.275c0,-0.52 -0.165,-0.945 -0.495,-1.275c-0.33,-0.33 -0.74,-0.495 -1.23,-0.495c-0.49,0 -0.9,0.165 -1.23,0.495c-0.33,0.33 -0.495,0.755 -0.495,1.275c0,0.52 0.165,0.945 0.495,1.275z" fill="#373737"/><path d="M281.575,223h2.25v7.5h-2.25v-0.705c-0.45,0.61 -1.165,0.915 -2.145,0.915c-0.8,0 -1.47,-0.275 -2.01,-0.825c-0.53,-0.55 -0.795,-1.31 -0.795,-2.28v-4.605h2.25v4.275c0,0.44 0.12,0.78 0.36,1.02c0.25,0.23 0.565,0.345 0.945,0.345c0.43,0 0.77,-0.13 1.02,-0.39c0.25,-0.26 0.375,-0.645 0.375,-1.155z" fill="#373737"/><path d="M285.47499,230.5v-10.95h2.25v10.95z" fill="#373737"/><path d="M294.817,220h2.25v10.5h-2.25v-0.705c-0.53,0.61 -1.275,0.915 -2.235,0.915c-0.99,0 -1.835,-0.38 -2.535,-1.14c-0.7,-0.77 -1.05,-1.71 -1.05,-2.82c0,-1.11 0.35,-2.045 1.05,-2.805c0.7,-0.77 1.545,-1.155 2.535,-1.155c0.96,0 1.705,0.305 2.235,0.915zM291.74199,228.085c0.33,0.33 0.76,0.495 1.29,0.495c0.53,0 0.96,-0.165 1.29,-0.495c0.33,-0.33 0.495,-0.775 0.495,-1.335c0,-0.56 -0.165,-1.005 -0.495,-1.335c-0.33,-0.33 -0.76,-0.495 -1.29,-0.495c-0.53,0 -0.96,0.165 -1.29,0.495c-0.33,0.33 -0.495,0.775 -0.495,1.335c0,0.56 0.165,1.005 0.495,1.335z" fill="#373737"/><path d="M301.568,220l-1.2,4.425h-1.8l0.6,-4.425z" fill="#373737"/><path d="M307.853,223h2.49l-2.775,7.5h-2.55l-2.775,-7.5h2.49l1.56,4.755z" fill="#373737"/><path d="M312.88599,227.65c0.26,0.7 0.86,1.05 1.8,1.05c0.61,0 1.09,-0.19 1.44,-0.57l1.8,1.035c-0.74,1.03 -1.83,1.545 -3.27,1.545c-1.26,0 -2.27,-0.375 -3.03,-1.125c-0.75,-0.75 -1.125,-1.695 -1.125,-2.835c0,-1.13 0.37,-2.07 1.11,-2.82c0.75,-0.76 1.71,-1.14 2.88,-1.14c1.09,0 1.995,0.38 2.715,1.14c0.73,0.75 1.095,1.69 1.095,2.82c0,0.32 -0.03,0.62 -0.09,0.9zM312.841,225.97h3.225c-0.22,-0.79 -0.75,-1.185 -1.59,-1.185c-0.87,0 -1.415,0.395 -1.635,1.185z" fill="#373737"/><path d="M327.812,222.79c0.99,0 1.835,0.385 2.535,1.155c0.7,0.76 1.05,1.695 1.05,2.805c0,1.11 -0.35,2.05 -1.05,2.82c-0.7,0.76 -1.545,1.14 -2.535,1.14c-0.96,0 -1.705,-0.305 -2.235,-0.915v0.705h-2.25v-10.5h2.25v3.705c0.53,-0.61 1.275,-0.915 2.235,-0.915zM326.072,228.085c0.34,0.33 0.77,0.495 1.29,0.495c0.52,0 0.945,-0.165 1.275,-0.495c0.34,-0.33 0.51,-0.775 0.51,-1.335c0,-0.56 -0.17,-1.005 -0.51,-1.335c-0.33,-0.33 -0.755,-0.495 -1.275,-0.495c-0.52,0 -0.95,0.165 -1.29,0.495c-0.33,0.33 -0.495,0.775 -0.495,1.335c0,0.56 0.165,1.005 0.495,1.335z" fill="#373737"/><path d="M334.683,227.65c0.26,0.7 0.86,1.05 1.8,1.05c0.61,0 1.09,-0.19 1.44,-0.57l1.8,1.035c-0.74,1.03 -1.83,1.545 -3.27,1.545c-1.26,0 -2.27,-0.375 -3.03,-1.125c-0.75,-0.75 -1.125,-1.695 -1.125,-2.835c0,-1.13 0.37,-2.07 1.11,-2.82c0.75,-0.76 1.71,-1.14 2.88,-1.14c1.09,0 1.995,0.38 2.715,1.14c0.73,0.75 1.095,1.69 1.095,2.82c0,0.32 -0.03,0.62 -0.09,0.9zM334.638,225.97h3.225c-0.22,-0.79 -0.75,-1.185 -1.59,-1.185c-0.87,0 -1.415,0.395 -1.635,1.185z" fill="#373737"/><path d="M343.311,227.65c0.26,0.7 0.86,1.05 1.8,1.05c0.61,0 1.09,-0.19 1.44,-0.57l1.8,1.035c-0.74,1.03 -1.83,1.545 -3.27,1.545c-1.26,0 -2.27,-0.375 -3.03,-1.125c-0.75,-0.75 -1.125,-1.695 -1.125,-2.835c0,-1.13 0.37,-2.07 1.11,-2.82c0.75,-0.76 1.71,-1.14 2.88,-1.14c1.09,0 1.995,0.38 2.715,1.14c0.73,0.75 1.095,1.69 1.095,2.82c0,0.32 -0.03,0.62 -0.09,0.9zM343.266,225.97h3.225c-0.22,-0.79 -0.75,-1.185 -1.59,-1.185c-0.87,0 -1.415,0.395 -1.635,1.185z" fill="#373737"/><path d="M354.397,222.79c0.8,0 1.465,0.275 1.995,0.825c0.54,0.55 0.81,1.31 0.81,2.28v4.605h-2.25v-4.275c0,-0.44 -0.125,-0.775 -0.375,-1.005c-0.24,-0.24 -0.55,-0.36 -0.93,-0.36c-0.43,0 -0.77,0.13 -1.02,0.39c-0.25,0.26 -0.375,0.645 -0.375,1.155v4.095h-2.25v-7.5h2.25v0.705c0.45,-0.61 1.165,-0.915 2.145,-0.915z" fill="#373737"/><path d="M361.027,225.19c-0.28,0.28 -0.615,0.42 -1.005,0.42c-0.39,0 -0.725,-0.14 -1.005,-0.42c-0.28,-0.28 -0.42,-0.615 -0.42,-1.005c0,-0.39 0.14,-0.725 0.42,-1.005c0.28,-0.28 0.615,-0.42 1.005,-0.42c0.39,0 0.725,0.14 1.005,0.42c0.28,0.28 0.42,0.615 0.42,1.005c0,0.39 -0.14,0.725 -0.42,1.005zM361.027,230.29c-0.28,0.28 -0.615,0.42 -1.005,0.42c-0.39,0 -0.725,-0.14 -1.005,-0.42c-0.28,-0.28 -0.42,-0.615 -0.42,-1.005c0,-0.39 0.14,-0.725 0.42,-1.005c0.28,-0.28 0.615,-0.42 1.005,-0.42c0.39,0 0.725,0.14 1.005,0.42c0.28,0.28 0.42,0.615 0.42,1.005c0,0.39 -0.14,0.725 -0.42,1.005z" fill="#373737"/><path d="M261.312,144.7708v17.4583c0,7.5834 -4.52,12.1042 -12.104,12.1042h-17.437c-7.584,0 -12.104,-4.5208 -12.104,-12.125v-17.4375c0,-7.58334 4.52,-12.10417 12.104,-12.10417h17.458c7.583,0 12.104,4.52083 12.083,12.10417zM231.187,147.8333c1.48,-1.4792 3.896,-1.4792 5.375,0c0.313,0.3125 0.709,0.4583 1.105,0.4583c0.395,0 0.791,-0.1458 1.104,-0.4583c0.604,-0.6042 0.604,-1.6042 0,-2.2083c-2.709,-2.6875 -7.104,-2.6875 -9.792,0c-0.604,0.6041 -0.604,1.6041 0,2.2083c0.604,0.625 1.604,0.625 2.208,0zM250.687,163.5c0,-5.6042 -4.562,-10.1667 -10.166,-10.1667c-5.604,0 -10.167,4.5625 -10.167,10.1667c0,1.4791 1.188,2.6666 2.646,2.6666h15c1.458,0 2.667,-1.2083 2.687,-2.6666zM252.021,145.625c-2.709,-2.6875 -7.104,-2.6875 -9.792,0c-0.604,0.6041 -0.604,1.6041 0,2.2083c0.313,0.3125 0.708,0.4583 1.104,0.4583c0.396,0 0.792,-0.1458 1.104,-0.4583c1.48,-1.4792 3.896,-1.4792 5.375,0c0.605,0.6042 1.605,0.6042 2.209,0c0.604,-0.6042 0.604,-1.5833 0,-2.2083z" fill="#373737"/></g></g></svg>